<svg width="240" height="92" viewBox="0 0 240 92" fill="none" xmlns="http://www.w3.org/2000/svg">
<path d="M101.028 33.4884C101.028 40.0539 95.7058 45.3763 89.1403 45.3763H77.2524V33.4884C77.2524 26.923 82.5748 21.6006 89.1403 21.6006C95.7058 21.6006 101.028 26.923 101.028 33.4884Z" fill="#F4EAE4"/>
<path d="M101.028 57.2642C101.028 50.6987 106.35 45.3763 112.916 45.3763H124.804V57.2642C124.804 63.8297 119.481 69.1521 112.916 69.1521C106.35 69.1521 101.028 63.8297 101.028 57.2642Z" fill="#F4EAE4"/>
<path d="M77.2524 57.2642C77.2524 63.8297 82.5748 69.1521 89.1403 69.1521H101.028V57.2642C101.028 50.6987 95.7058 45.3763 89.1403 45.3763C82.5748 45.3763 77.2524 50.6987 77.2524 57.2642Z" fill="#F4EAE4"/>
<path d="M124.804 33.4884C124.804 26.923 119.481 21.6006 112.916 21.6006H101.028V33.4884C101.028 40.0539 106.35 45.3763 112.916 45.3763C119.481 45.3763 124.804 40.0539 124.804 33.4884Z" fill="#F4EAE4"/>
<path d="M153.98 33.4884C153.98 40.0539 148.657 45.3763 142.092 45.3763H130.204V33.4884C130.204 26.923 135.526 21.6006 142.092 21.6006C148.657 21.6006 153.98 26.923 153.98 33.4884Z" fill="#F4EAE4"/>
<path d="M153.98 57.2642C153.98 50.6987 159.302 45.3763 165.868 45.3763H177.755V57.2642C177.755 63.8297 172.433 69.1521 165.868 69.1521C159.302 69.1521 153.98 63.8297 153.98 57.2642Z" fill="#F4EAE4"/>
<path d="M130.204 57.2642C130.204 63.8297 135.526 69.1521 142.092 69.1521H153.98V57.2642C153.98 50.6987 148.657 45.3763 142.092 45.3763C135.526 45.3763 130.204 50.6987 130.204 57.2642Z" fill="#F4EAE4"/>
<path d="M177.755 33.4884C177.755 26.923 172.433 21.6006 165.868 21.6006H153.98V33.4884C153.98 40.0539 159.302 45.3763 165.868 45.3763C172.433 45.3763 177.755 40.0539 177.755 33.4884Z" fill="#F4EAE4"/>
<path d="M50.2153 23.2061C52.0779 21.0951 54.8842 20.0397 58.6342 20.0397C62.409 20.0397 64.7931 20.3128 65.7865 20.8592L66.7923 21.7905C66.7923 22.6845 66.2956 23.7276 65.3022 24.9196C64.3089 26.0869 63.7377 26.8691 63.5887 27.2665C63.0175 28.7069 62.7319 30.7185 62.7319 33.3013C62.7319 35.8841 62.7691 38.0571 62.8436 39.8203L63.2161 46.4139C63.3403 49.3692 63.4024 52.6846 63.4024 56.3601C63.4024 60.0356 63.5638 62.3452 63.8867 63.2889C64.2344 64.2078 64.8925 65.077 65.861 65.8965L67.9844 67.7591C67.9844 69.1747 66.4943 69.8824 63.5142 69.8824C59.3668 69.8824 56.0887 69.6093 53.6797 69.0629C51.9661 68.6656 51.1093 67.8833 51.1093 66.7161L51.3701 65.673C52.289 62.7674 52.7484 60.5944 52.7484 59.154C52.7484 57.6887 52.5746 54.9445 52.2269 50.9213C51.904 46.8981 51.7426 43.2847 51.7426 40.0811C51.7426 36.8774 51.6184 35.2756 51.3701 35.2756C50.7244 35.2756 48.8494 39.423 45.7451 47.7177C42.6408 56.0124 40.4926 61.327 39.3006 63.6614C37.5621 67.0886 35.8486 68.8021 34.1598 68.8021C32.4959 68.8021 31.1548 67.7715 30.1366 65.7103L29.2798 63.6614C29.0067 62.966 28.1871 60.8675 26.8212 57.3659L23.5058 48.9842C19.9793 40.0935 17.8312 35.6481 17.0613 35.6481C16.3162 35.6481 15.9437 39.0629 15.9437 45.8923C15.9437 49.1457 16.0058 51.9147 16.13 54.1995L16.428 58.1109C16.5273 59.3775 16.577 60.644 16.577 61.9106L16.726 63.6987L16.9123 65.1887C16.9868 65.9586 17.024 66.9768 17.024 68.2434L16.3908 68.9884C15.2484 69.8079 13.6838 70.2177 11.697 70.2177C7.05299 70.2177 4.73097 69.6341 4.73097 68.4669C4.73097 67.9702 5.20282 67.0637 6.14653 65.7475C7.11508 64.4313 7.78561 63.1896 8.15812 62.0223C8.53064 60.8303 8.7169 58.2351 8.7169 54.2367L8.7914 52.0389L8.94041 49.8038C9.28809 42.8501 9.46193 38.2061 9.46193 35.8716C9.46193 33.5372 9.30051 31.687 8.97766 30.3211C8.67965 28.9552 7.97187 27.3658 6.85431 25.5529C5.7616 23.7152 5.21524 22.3989 5.21524 21.6042L5.99752 20.7102C7.04057 19.9403 8.13329 19.5554 9.27568 19.5554H11.2873C13.7459 19.5554 16.0307 20.0397 18.1416 21.0082C20.2525 21.9519 21.8543 23.2185 22.9471 24.8079L23.9901 26.5215C24.8345 28.0364 25.6913 29.9362 26.5605 32.221C27.4297 34.4809 28.6962 37.4859 30.3601 41.2359C32.0241 44.9611 33.452 47.8046 34.6441 49.7665L35.6126 50.9958C36.308 50.9958 38.6921 46.6125 42.765 37.846C46.8626 29.0794 49.3461 24.1994 50.2153 23.2061Z" fill="#F4EAE4"/>
<path d="M223.276 46.7864V44.2533C223.276 41.6208 222.916 39.0505 222.195 36.5422C220.656 31.2028 217.787 27.6018 213.59 25.7392C211.678 24.8948 209.592 24.4726 207.332 24.4726L206.81 24.5099C203.979 24.5099 202.39 25.1431 202.042 26.4097C201.968 26.6829 201.93 30.3956 201.93 37.548V51.8526L201.893 52.4114C201.893 52.7839 201.893 53.1564 201.893 53.5289L201.781 57.4404C201.781 57.8129 201.781 58.1854 201.781 58.5579L201.744 60.2343V60.8303C201.744 62.9164 202.005 64.2947 202.526 64.9652C203.048 65.6358 204.377 65.971 206.512 65.971H208.747C210.834 65.971 212.82 65.4371 214.708 64.3692C216.62 63.3013 218.135 62.0223 219.252 60.5323C220.37 59.0174 221.314 57.043 222.084 54.6092C222.878 52.1506 223.276 49.543 223.276 46.7864ZM188.743 24.3981C187.328 23.6779 186.62 22.8211 186.62 21.8277C186.62 20.8095 187.216 20.2011 188.408 20.0024C191.761 19.4312 197.535 19.1456 205.73 19.1456H207.704C216.372 19.1456 223.189 21.4304 228.156 25.9999C233.122 30.5446 235.606 36.8029 235.606 44.7748C235.606 52.7467 233.122 59.1415 228.156 63.9594C223.189 68.7773 216.608 71.1863 208.412 71.1863H205.469L204.501 71.149L202.489 71.1118C201.843 71.0869 201.21 71.0745 200.589 71.0745L192.245 70.8137C189.463 70.8137 187.812 70.6523 187.29 70.3295C186.794 70.0066 186.545 69.3733 186.545 68.4296C186.545 67.8833 187.266 67.1382 188.706 66.1945C190.146 65.226 191.053 64.0836 191.425 62.7674C191.798 61.4511 191.984 57.0803 191.984 49.6548L191.91 44.8866L192.021 39.2615L192.059 38.3303C192.084 37.6846 192.096 37.0513 192.096 36.4304L192.17 33.6365C192.17 30.259 191.91 27.9494 191.388 26.7077C191.04 25.8882 190.159 25.1183 188.743 24.3981Z" fill="#F4EAE4"/>
</svg>
