<svg width="259" height="225" viewBox="0 0 259 225" fill="none" xmlns="http://www.w3.org/2000/svg">
<path d="M216.734 119.075C211.193 126.702 200.518 128.393 192.891 122.852L179.08 112.818L189.114 99.0081C194.656 91.381 205.331 89.6902 212.958 95.2316C220.585 100.773 222.276 111.448 216.734 119.075Z" fill="#97A1F9" fill-opacity="0.25"/>
<path d="M258.643 181.147C264.184 173.52 274.859 171.829 282.486 177.371L296.296 187.404L286.263 201.214C280.721 208.841 270.046 210.532 262.419 204.991C254.792 199.449 253.101 188.774 258.643 181.147Z" fill="#97A1F9" fill-opacity="0.25"/>
<path d="M210.462 147.567C204.921 155.195 206.611 165.87 214.238 171.411L228.049 181.445L238.082 167.635C243.624 160.008 241.933 149.332 234.306 143.791C226.679 138.25 216.003 139.94 210.462 147.567Z" fill="#97A1F9" fill-opacity="0.25"/>
<path d="M282.019 127.904C283.867 118.659 277.87 109.667 268.625 107.819L251.886 104.474L248.541 121.213C246.693 130.457 252.69 139.45 261.935 141.297C271.179 143.145 280.172 137.148 282.019 127.904Z" fill="#97A1F9" fill-opacity="0.25"/>
<path d="M242.392 13.0519C236.851 20.679 226.175 22.3698 218.548 16.8284L204.738 6.79475L214.772 -7.01535C220.313 -14.6425 230.988 -16.3332 238.616 -10.7918C246.243 -5.25041 247.933 5.42478 242.392 13.0519Z" fill="#97A1F9" fill-opacity="0.25"/>
<path d="M232.514 47.2267C238.056 39.5996 248.731 37.9088 256.358 43.4502L270.168 53.4839L260.135 67.294C254.593 74.9211 243.918 76.6118 236.291 71.0704C228.664 65.529 226.973 54.8538 232.514 47.2267Z" fill="#97A1F9" fill-opacity="0.25"/>
<path d="M171.413 25.5113C165.871 33.1384 167.562 43.8136 175.189 49.355L188.999 59.3886L199.033 45.5785C204.574 37.9514 202.883 27.2762 195.256 21.7348C187.629 16.1934 176.954 17.8842 171.413 25.5113Z" fill="#97A1F9" fill-opacity="0.25"/>
<path d="M107.257 39.5409C112.798 31.9138 123.473 30.223 131.1 35.7645L144.91 45.7981L134.877 59.6082C129.335 67.2353 118.66 68.9261 111.033 63.3846C103.406 57.8432 101.715 47.168 107.257 39.5409Z" fill="#97A1F9" fill-opacity="0.25"/>
<path d="M52.4124 -9.98361C46.871 -2.35651 48.5618 8.31868 56.1889 13.8601L69.999 23.8937L80.0326 10.0836C85.574 2.45653 83.8832 -8.21867 76.2561 -13.7601C68.629 -19.3015 57.9538 -17.6107 52.4124 -9.98361Z" fill="#97A1F9" fill-opacity="0.25"/>
<path d="M167.754 -0.849106C173.295 -8.47622 171.605 -19.1514 163.978 -24.6928L150.167 -34.7264L140.134 -20.9163C134.592 -13.2892 136.283 -2.61405 143.91 2.92737C151.537 8.46878 162.213 6.77799 167.754 -0.849106Z" fill="#97A1F9" fill-opacity="0.25"/>
</svg>
