<svg width="38" height="38" viewBox="0 0 38 38" fill="none" xmlns="http://www.w3.org/2000/svg">
<path d="M18.6147 9.30737C18.6147 14.4477 14.4477 18.6147 9.30737 18.6147H0V9.30737C0 4.16705 4.16705 0 9.30737 0C14.4477 0 18.6147 4.16705 18.6147 9.30737Z" fill="#E9DAD2"/>
<path d="M18.6147 27.9221C18.6147 22.7818 22.7818 18.6147 27.9221 18.6147H37.2295V27.9221C37.2295 33.0624 33.0624 37.2295 27.9221 37.2295C22.7818 37.2295 18.6147 33.0624 18.6147 27.9221Z" fill="#E9DAD2"/>
<path d="M0 27.9221C0 33.0624 4.16705 37.2295 9.30737 37.2295H18.6147V27.9221C18.6147 22.7818 14.4477 18.6147 9.30737 18.6147C4.16705 18.6147 0 22.7818 0 27.9221Z" fill="#E9DAD2"/>
<path d="M37.2295 9.30737C37.2295 4.16705 33.0624 0 27.9221 0H18.6147V9.30737C18.6147 14.4477 22.7818 18.6147 27.9221 18.6147C33.0624 18.6147 37.2295 14.4477 37.2295 9.30737Z" fill="#E9DAD2"/>
</svg>
