<svg width="69" height="61" viewBox="0 0 69 61" fill="none" xmlns="http://www.w3.org/2000/svg">
<path d="M40.4625 11.3265C40.8783 12.7763 40.7282 14.147 40.0123 15.4386C39.2963 16.7301 38.3027 17.5582 37.0313 17.9227L36.3287 18.1242C36.0928 18.1435 35.9192 18.1692 35.8076 18.2012C34.7816 18.4954 33.6323 18.2335 32.3598 17.4156C31.0873 16.5977 30.2559 15.5084 29.8658 14.1478L29.7027 13.579C29.2933 12.1515 29.4434 10.7808 30.153 9.46694C30.8912 8.16899 31.9295 7.32814 33.2678 6.94439L33.6358 6.83885C34.7957 6.50627 36.0596 6.66284 37.4276 7.30856C38.7955 7.95428 39.6554 8.89054 40.0072 10.1173L40.3666 10.9919L40.4625 11.3265ZM17.792 17.2478L17.9455 17.7831C18.3548 19.2107 18.1904 20.5734 17.4521 21.8714C16.7426 23.1852 15.8302 24.002 14.715 24.3218L13.8116 24.5809C12.6294 24.9198 11.3782 24.7234 10.058 23.9916C8.73772 23.2598 7.90811 22.3028 7.56913 21.1206L7.39668 20.7718L7.18561 20.0357C6.76988 18.5858 6.91997 17.2152 7.63589 15.9236C8.3518 14.6321 9.33431 13.8072 10.5834 13.449L11.286 13.2476C12.4905 12.9022 13.7672 13.1034 15.1162 13.8511C16.4651 14.5988 17.357 15.7311 17.792 17.2478ZM8.05911 38.6138C7.14068 38.1047 6.45121 37.0471 5.9907 35.4412C5.5302 33.8352 5.5453 32.9618 6.03602 32.8211C6.68287 32.6357 7.91473 32.5962 9.73161 32.7029C20.5372 33.346 38.3116 35.2255 63.0545 38.3414C65.4868 38.6578 66.9363 39.6302 67.4032 41.2585L67.5759 41.8607C68.0748 43.6005 68.0789 44.5408 67.5882 44.6815C66.8967 44.8797 64.7659 44.8148 61.1958 44.4868C35.6121 42.143 18.7447 40.3534 10.5935 39.1181C9.10482 38.8932 8.26002 38.7251 8.05911 38.6138Z" fill="#F4EAE4"/>
</svg>
