<svg width="225" height="86" viewBox="0 0 225 86" fill="none" xmlns="http://www.w3.org/2000/svg">
<path d="M94.3955 31.2899C94.3955 37.4244 89.4225 42.3973 83.2881 42.3973H72.1807V31.2899C72.1807 25.1554 77.1536 20.1825 83.2881 20.1825C89.4225 20.1825 94.3955 25.1554 94.3955 31.2899Z" fill="#756B65"/>
<path d="M94.3955 53.5046C94.3955 47.3702 99.3685 42.3972 105.503 42.3972H116.61V53.5046C116.61 59.6391 111.637 64.612 105.503 64.612C99.3685 64.612 94.3955 59.6391 94.3955 53.5046Z" fill="#756B65"/>
<path d="M72.1807 53.5046C72.1807 59.6391 77.1536 64.612 83.2881 64.612H94.3955V53.5046C94.3955 47.3702 89.4225 42.3972 83.2881 42.3972C77.1536 42.3972 72.1807 47.3702 72.1807 53.5046Z" fill="#756B65"/>
<path d="M116.61 31.2899C116.61 25.1554 111.637 20.1825 105.503 20.1825H94.3955V31.2899C94.3955 37.4244 99.3685 42.3973 105.503 42.3973C111.637 42.3973 116.61 37.4244 116.61 31.2899Z" fill="#756B65"/>
<path d="M143.871 31.2899C143.871 37.4244 138.898 42.3973 132.763 42.3973H121.656V31.2899C121.656 25.1554 126.629 20.1825 132.763 20.1825C138.898 20.1825 143.871 25.1554 143.871 31.2899Z" fill="#756B65"/>
<path d="M143.871 53.5046C143.871 47.3702 148.844 42.3972 154.978 42.3972H166.085V53.5046C166.085 59.6391 161.112 64.612 154.978 64.612C148.844 64.612 143.871 59.6391 143.871 53.5046Z" fill="#756B65"/>
<path d="M121.656 53.5046C121.656 59.6391 126.629 64.612 132.763 64.612H143.871V53.5046C143.871 47.3702 138.898 42.3972 132.763 42.3972C126.629 42.3972 121.656 47.3702 121.656 53.5046Z" fill="#756B65"/>
<path d="M166.085 31.2899C166.085 25.1554 161.112 20.1825 154.978 20.1825H143.871V31.2899C143.871 37.4244 148.844 42.3973 154.978 42.3973C161.112 42.3973 166.085 37.4244 166.085 31.2899Z" fill="#756B65"/>
<path d="M46.9186 22.3438C48.6589 20.3714 51.281 19.3853 54.7848 19.3853C58.3118 19.3853 60.5394 19.6405 61.4676 20.151L62.4073 21.0212C62.4073 21.8565 61.9432 22.8311 61.0151 23.9449C60.0869 25.0355 59.5532 25.7664 59.414 26.1376C58.8803 27.4835 58.6135 29.363 58.6135 31.7762C58.6135 34.1895 58.6483 36.2198 58.7179 37.8673L59.0659 44.028C59.182 46.7893 59.24 49.887 59.24 53.3212C59.24 56.7554 59.3908 58.9134 59.6924 59.7951C60.0173 60.6537 60.6322 61.4658 61.5372 62.2316L63.5211 63.9719C63.5211 65.2945 62.1289 65.9558 59.3444 65.9558C55.4693 65.9558 52.4064 65.7006 50.1556 65.1901C48.5545 64.8188 47.754 64.0879 47.754 62.9973L47.9976 62.0227C48.8562 59.3079 49.2854 57.2775 49.2854 55.9317C49.2854 54.5626 49.123 51.9986 48.7981 48.2395C48.4965 44.4805 48.3457 41.1043 48.3457 38.1109C48.3457 35.1176 48.2296 33.621 47.9976 33.621C47.3943 33.621 45.6424 37.496 42.7419 45.2462C39.8414 52.9963 37.8342 57.962 36.7204 60.1432C35.0961 63.3454 33.4951 64.9464 31.9172 64.9464C30.3625 64.9464 29.1095 63.9835 28.1581 62.0575L27.3576 60.1432C27.1023 59.4935 26.3366 57.5327 25.0604 54.261L21.9626 46.4296C18.6677 38.1225 16.6605 33.969 15.9412 33.969C15.2451 33.969 14.897 37.1596 14.897 43.5407C14.897 46.5804 14.955 49.1677 15.071 51.3025L15.3495 54.9571C15.4423 56.1405 15.4887 57.3239 15.4887 58.5073L15.6279 60.178L15.802 61.5702C15.8716 62.2896 15.9064 63.2409 15.9064 64.4243L15.3147 65.1205C14.2473 65.8862 12.7854 66.2691 10.9291 66.2691C6.58995 66.2691 4.42037 65.7238 4.42037 64.6332C4.42037 64.1691 4.86125 63.3222 5.74301 62.0923C6.64796 60.8625 7.27447 59.7023 7.62253 58.6117C7.97059 57.4979 8.14463 55.0731 8.14463 51.3373L8.21424 49.2837L8.35346 47.1953C8.67832 40.6982 8.84075 36.359 8.84075 34.1779C8.84075 31.9967 8.68992 30.268 8.38827 28.9917C8.10982 27.7155 7.4485 26.2305 6.40432 24.5366C5.38334 22.8195 4.87285 21.5897 4.87285 20.8471L5.60378 20.0118C6.57835 19.2925 7.59933 18.9328 8.66672 18.9328H10.5462C12.8434 18.9328 14.9782 19.3853 16.9506 20.2902C18.9229 21.172 20.4196 22.3554 21.4406 23.8404L22.4151 25.4415C23.2041 26.857 24.0046 28.6321 24.8167 30.7669C25.6289 32.8784 26.8123 35.6861 28.367 39.1899C29.9216 42.6705 31.2559 45.3274 32.3697 47.1605L33.2746 48.3091C33.9243 48.3091 36.1519 44.2136 39.9574 36.0226C43.7861 27.8315 46.1065 23.2719 46.9186 22.3438Z" fill="#756B65"/>
<path d="M208.618 44.376V42.0092C208.618 39.5496 208.281 37.148 207.608 34.8044C206.169 29.8155 203.489 26.4509 199.568 24.7106C197.781 23.9217 195.832 23.5272 193.721 23.5272L193.233 23.562C190.588 23.562 189.103 24.1537 188.778 25.3371C188.708 25.5924 188.674 29.0614 188.674 35.7441V49.1097L188.639 49.6318C188.639 49.9798 188.639 50.3279 188.639 50.6759L188.534 54.3306C188.534 54.6786 188.534 55.0267 188.534 55.3748L188.5 56.941V57.4979C188.5 59.4471 188.743 60.7349 189.231 61.3614C189.718 61.9879 190.959 62.3012 192.955 62.3012H195.043C196.992 62.3012 198.849 61.8023 200.612 60.8045C202.399 59.8067 203.814 58.6117 204.858 57.2195C205.903 55.804 206.784 53.9593 207.504 51.6853C208.246 49.3881 208.618 46.9517 208.618 44.376ZM176.352 23.4576C175.03 22.7847 174.368 21.9841 174.368 21.056C174.368 20.1046 174.925 19.5361 176.039 19.3505C179.172 18.8168 184.566 18.5499 192.224 18.5499H194.069C202.167 18.5499 208.536 20.6847 213.177 24.9542C217.818 29.2006 220.138 35.048 220.138 42.4965C220.138 49.945 217.818 55.9201 213.177 60.4216C208.536 64.9232 202.387 67.174 194.73 67.174H191.98L191.075 67.1392L189.196 67.1044C188.592 67.0812 188.001 67.0696 187.421 67.0696L179.624 66.826C177.025 66.826 175.482 66.6751 174.995 66.3735C174.531 66.0718 174.299 65.4801 174.299 64.5984C174.299 64.0879 174.972 63.3918 176.317 62.51C177.663 61.6051 178.51 60.5377 178.858 59.3079C179.206 58.078 179.38 53.9941 179.38 47.0561L179.311 42.6009L179.415 37.3452L179.45 36.4751C179.473 35.8718 179.485 35.28 179.485 34.6999L179.554 32.0895C179.554 28.9337 179.311 26.7758 178.823 25.6156C178.499 24.8498 177.675 24.1305 176.352 23.4576Z" fill="#756B65"/>
</svg>
