<svg width="227" height="88" viewBox="0 0 227 88" fill="none" xmlns="http://www.w3.org/2000/svg">
<path d="M95.7505 31.7392C95.7505 37.9617 90.7062 43.006 84.4837 43.006H73.2168V31.7392C73.2168 25.5166 78.2611 20.4723 84.4837 20.4723C90.7062 20.4723 95.7505 25.5166 95.7505 31.7392Z" fill="#93DCAF"/>
<path d="M95.7507 54.2729C95.7507 48.0503 100.795 43.006 107.018 43.006H118.284V54.2729C118.284 60.4954 113.24 65.5397 107.018 65.5397C100.795 65.5397 95.7507 60.4954 95.7507 54.2729Z" fill="#93DCAF"/>
<path d="M73.2168 54.2729C73.2168 60.4954 78.2611 65.5397 84.4837 65.5397H95.7505V54.2729C95.7505 48.0503 90.7062 43.006 84.4837 43.006C78.2611 43.006 73.2168 48.0503 73.2168 54.2729Z" fill="#93DCAF"/>
<path d="M118.284 31.7392C118.284 25.5166 113.24 20.4723 107.018 20.4723H95.7507V31.7392C95.7507 37.9617 100.795 43.006 107.018 43.006C113.24 43.006 118.284 37.9617 118.284 31.7392Z" fill="#93DCAF"/>
<path d="M145.936 31.7392C145.936 37.9617 140.892 43.006 134.669 43.006H123.403V31.7392C123.403 25.5166 128.447 20.4723 134.669 20.4723C140.892 20.4723 145.936 25.5166 145.936 31.7392Z" fill="#8590F7"/>
<path d="M145.936 54.2729C145.936 48.0503 150.981 43.006 157.203 43.006H168.47V54.2729C168.47 60.4954 163.426 65.5397 157.203 65.5397C150.981 65.5397 145.936 60.4954 145.936 54.2729Z" fill="#8590F7"/>
<path d="M123.403 54.2729C123.403 60.4954 128.447 65.5397 134.669 65.5397H145.936V54.2729C145.936 48.0503 140.892 43.006 134.669 43.006C128.447 43.006 123.403 48.0503 123.403 54.2729Z" fill="#8590F7"/>
<path d="M168.47 31.7392C168.47 25.5166 163.426 20.4723 157.203 20.4723H145.936V31.7392C145.936 37.9617 150.981 43.006 157.203 43.006C163.426 43.006 168.47 37.9617 168.47 31.7392Z" fill="#8590F7"/>
<path d="M47.5922 22.7027C49.3575 20.702 52.0172 19.7017 55.5713 19.7017C59.1489 19.7017 61.4085 19.9606 62.35 20.4784L63.3033 21.3611C63.3033 22.2084 62.8325 23.197 61.891 24.3268C60.9495 25.433 60.4082 26.1744 60.267 26.551C59.7256 27.9162 59.4549 29.8227 59.4549 32.2706C59.4549 34.7184 59.4902 36.7779 59.5608 38.4491L59.9139 44.6982C60.0316 47.4991 60.0904 50.6413 60.0904 54.1248C60.0904 57.6083 60.2434 59.7973 60.5494 60.6917C60.8789 61.5626 61.5027 62.3864 62.4206 63.1631L64.433 64.9284C64.433 66.27 63.0208 66.9408 60.1964 66.9408C56.2656 66.9408 53.1587 66.6819 50.8756 66.1641C49.2516 65.7875 48.4395 65.0461 48.4395 63.9398L48.6867 62.9513C49.5575 60.1974 49.993 58.1379 49.993 56.7728C49.993 55.3841 49.8282 52.7832 49.4987 48.9702C49.1927 45.1572 49.0397 41.7325 49.0397 38.6962C49.0397 35.6599 48.922 34.1418 48.6867 34.1418C48.0747 34.1418 46.2976 38.0725 43.3555 45.9339C40.4133 53.7953 38.3774 58.8323 37.2476 61.0448C35.6 64.2929 33.9759 65.917 32.3754 65.917C30.7984 65.917 29.5274 64.9402 28.5624 62.9866L27.7503 61.0448C27.4914 60.3857 26.7147 58.3968 25.4202 55.0781L22.2779 47.1343C18.9357 38.708 16.8997 34.4948 16.17 34.4948C15.4639 34.4948 15.1109 37.7312 15.1109 44.2039C15.1109 47.2873 15.1697 49.9117 15.2874 52.0771L15.5698 55.7842C15.664 56.9846 15.7111 58.185 15.7111 59.3854L15.8523 61.0801L16.0288 62.4923C16.0994 63.222 16.1347 64.187 16.1347 65.3874L15.5345 66.0935C14.4518 66.8702 12.969 67.2586 11.086 67.2586C6.68456 67.2586 4.48383 66.7055 4.48383 65.5992C4.48383 65.1285 4.93104 64.2694 5.82545 63.0219C6.7434 61.7744 7.37891 60.5976 7.73197 59.4913C8.08502 58.3615 8.26155 55.9019 8.26155 52.1124L8.33216 50.0294L8.47339 47.911C8.80291 41.3206 8.96767 36.9191 8.96767 34.7067C8.96767 32.4942 8.81468 30.7406 8.50869 29.4461C8.22625 28.1515 7.55544 26.6452 6.49626 24.9269C5.46063 23.1852 4.94281 21.9377 4.94281 21.1845L5.68423 20.3372C6.67279 19.6075 7.70843 19.2427 8.79114 19.2427H10.6977C13.0278 19.2427 15.1933 19.7017 17.1939 20.6196C19.1946 21.5141 20.7127 22.7145 21.7484 24.2208L22.7369 25.8449C23.5372 27.2807 24.3492 29.0813 25.173 31.2467C25.9968 33.3886 27.1972 36.2366 28.7742 39.7907C30.3512 43.3213 31.7046 46.0163 32.8344 47.8757L33.7523 49.0408C34.4114 49.0408 36.6709 44.8865 40.531 36.5779C44.4147 28.2692 46.7684 23.6442 47.5922 22.7027Z" fill="#8590F7"/>
<path d="M211.612 45.0512V42.6505C211.612 40.1555 211.271 37.7194 210.588 35.3422C209.129 30.2817 206.41 26.8688 202.433 25.1035C200.62 24.3032 198.643 23.9031 196.501 23.9031L196.007 23.9384C193.324 23.9384 191.817 24.5386 191.488 25.739C191.417 25.9979 191.382 29.5167 191.382 36.2954V49.8528L191.347 50.3824C191.347 50.7355 191.347 51.0885 191.347 51.4416L191.241 55.1487C191.241 55.5018 191.241 55.8548 191.241 56.2079L191.205 57.7966V58.3615C191.205 60.3386 191.453 61.645 191.947 62.2805C192.441 62.916 193.7 63.2337 195.725 63.2337H197.843C199.82 63.2337 201.703 62.7277 203.492 61.7156C205.304 60.7035 206.74 59.4913 207.799 58.0791C208.858 56.6433 209.753 54.7721 210.482 52.4655C211.236 50.1353 211.612 47.6639 211.612 45.0512ZM178.884 23.8325C177.542 23.1499 176.871 22.3379 176.871 21.3964C176.871 20.4313 177.436 19.8547 178.566 19.6664C181.744 19.125 187.216 18.8544 194.983 18.8544H196.854C205.069 18.8544 211.53 21.0198 216.237 25.3506C220.945 29.6579 223.298 35.5893 223.298 43.1447C223.298 50.7002 220.945 56.761 216.237 61.3272C211.53 65.8934 205.292 68.1765 197.525 68.1765H194.736L193.818 68.1412L191.912 68.1059C191.3 68.0824 190.699 68.0706 190.111 68.0706L182.203 67.8235C179.566 67.8235 178.001 67.6705 177.507 67.3645C177.036 67.0585 176.801 66.4583 176.801 65.5639C176.801 65.0461 177.483 64.34 178.848 63.4456C180.214 62.5276 181.073 61.4449 181.426 60.1974C181.779 58.95 181.955 54.8074 181.955 47.7698L181.885 43.2506L181.991 37.9195L182.026 37.0368C182.05 36.4249 182.061 35.8247 182.061 35.2362L182.132 32.5883C182.132 29.3872 181.885 27.1983 181.39 26.0214C181.061 25.2447 180.225 24.515 178.884 23.8325Z" fill="#93DCAF"/>
</svg>
