<svg width="75" height="62" viewBox="0 0 75 62" fill="none" xmlns="http://www.w3.org/2000/svg">
<path d="M44.2635 14.4886C44.9009 15.8556 44.9671 17.2328 44.462 18.6205C43.957 20.0081 43.1051 20.9814 41.9064 21.5404L41.2439 21.8493C41.014 21.9053 40.8465 21.9578 40.7413 22.0069C39.774 22.458 38.5979 22.3791 37.2131 21.7703C35.8282 21.1615 34.8367 20.2157 34.2385 18.9329L33.9885 18.3966C33.3609 17.0507 33.2947 15.6734 33.7899 14.2647C34.316 12.8673 35.21 11.8744 36.4718 11.286L36.8188 11.1242C37.9123 10.6142 39.1852 10.5712 40.6373 10.9949C42.0895 11.4187 43.0852 12.2089 43.6246 13.3656L44.1164 14.1732L44.2635 14.4886ZM22.7983 23.8835L23.0337 24.3882C23.6613 25.7341 23.7121 27.1058 23.186 28.5033C22.6907 29.9119 21.9173 30.8614 20.8658 31.3518L20.0141 31.7489C18.8995 32.2687 17.633 32.2704 16.2145 31.7541C14.796 31.2378 13.8269 30.4224 13.3072 29.3078L13.0823 28.9902L12.7587 28.2962C12.1213 26.9293 12.0551 25.552 12.5601 24.1643C13.0652 22.7767 13.9066 21.8083 15.0842 21.2591L15.7467 20.9502C16.8823 20.4207 18.1748 20.4197 19.6241 20.9472C21.0734 21.4747 22.1315 22.4535 22.7983 23.8835ZM46.6278 47.0666L43.8834 48.3464C38.4367 50.8862 32.1394 52.0689 24.9916 51.8944C21.7969 51.7967 18.5526 51.2357 15.2586 50.2115C11.9745 49.2082 10.0333 48.0651 9.43514 46.7823C8.84676 45.5205 9.12037 44.6248 10.256 44.0953C10.6135 43.9286 11.77 43.9654 13.7254 44.2057C15.6809 44.4459 17.6952 44.6204 19.7685 44.7289C21.8305 44.8683 24.712 44.6512 28.4129 44.0775C32.1237 43.5249 36.6183 42.0179 41.8969 39.5564C47.1964 37.0852 51.8443 33.9578 55.8406 30.174C57.2793 28.8119 59.0469 26.6179 61.1435 23.592C63.2401 20.5661 64.4566 18.9747 64.7931 18.8178C65.9498 18.2785 66.8321 18.6607 67.4401 19.9646C68.0481 21.2685 67.7236 23.4552 66.4667 26.5248C65.2406 29.6056 63.5366 32.5124 61.3545 35.2453C59.1823 37.9992 56.7502 40.3879 54.0581 42.4113C51.3969 44.446 48.9201 45.9977 46.6278 47.0666Z" fill="#F4EAE4"/>
</svg>
