<svg width="276" height="253" viewBox="0 0 276 253" fill="none" xmlns="http://www.w3.org/2000/svg">
<path d="M59.6419 115.484C66.0715 108.589 76.8732 108.212 83.7681 114.642L96.2525 126.284L84.6106 138.768C78.181 145.663 67.3793 146.04 60.4844 139.611C53.5895 133.181 53.2123 122.379 59.6419 115.484Z" fill="#97A1F9" fill-opacity="0.25"/>
<path d="M25.6106 48.7681C19.181 55.663 8.37931 56.0402 1.48439 49.6106L-11 37.9687L0.64188 25.4844C7.0715 18.5894 17.8732 18.2122 24.7681 24.6419C31.663 31.0715 32.0402 41.8732 25.6106 48.7681Z" fill="#97A1F9" fill-opacity="0.25"/>
<path d="M69.3396 87.9691C75.7692 81.0742 75.392 70.2725 68.4971 63.8429L56.0127 52.201L44.3709 64.6854C37.9413 71.5803 38.3185 82.382 45.2134 88.8116C52.1083 95.2413 62.91 94.864 69.3396 87.9691Z" fill="#97A1F9" fill-opacity="0.25"/>
<path d="M-4.08074 98.7658C-7.04126 107.717 -2.18525 117.372 6.76546 120.333L22.9722 125.693L28.3327 109.487C31.2932 100.536 26.4372 90.8801 17.4865 87.9196C8.53576 84.9591 -1.12022 89.8151 -4.08074 98.7658Z" fill="#97A1F9" fill-opacity="0.25"/>
<path d="M21.2542 217.591C27.6838 210.696 38.4855 210.319 45.3804 216.748L57.8648 228.39L46.2229 240.875C39.7933 247.769 28.9916 248.147 22.0967 241.717C15.2018 235.287 14.8246 224.486 21.2542 217.591Z" fill="#97A1F9" fill-opacity="0.25"/>
<path d="M35.2229 184.875C28.7933 191.769 17.9916 192.147 11.0967 185.717L-1.38767 174.075L10.2542 161.591C16.6838 154.696 27.4855 154.319 34.3804 160.748C41.2753 167.178 41.6525 177.98 35.2229 184.875Z" fill="#97A1F9" fill-opacity="0.25"/>
<path d="M93.2229 213.875C99.6525 206.98 99.2753 196.178 92.3804 189.748L79.896 178.106L68.2542 190.591C61.8246 197.486 62.2018 208.287 69.0967 214.717C75.9916 221.147 86.7933 220.769 93.2229 213.875Z" fill="#97A1F9" fill-opacity="0.25"/>
<path d="M-32.3581 186.457C-38.7877 193.352 -38.4105 204.154 -31.5156 210.583L-19.0312 222.225L-7.38939 209.741C-0.959774 202.846 -1.33698 192.044 -8.2319 185.615C-15.1268 179.185 -25.9285 179.562 -32.3581 186.457Z" fill="#97A1F9" fill-opacity="0.25"/>
<path d="M158.758 265.292C165.187 258.397 175.989 258.02 182.884 264.45L195.368 276.092L183.726 288.576C177.297 295.471 166.495 295.848 159.6 289.418C152.705 282.989 152.328 272.187 158.758 265.292Z" fill="#97A1F9" fill-opacity="0.25"/>
<path d="M158.61 207.768C152.181 214.663 141.379 215.04 134.484 208.61L122 196.969L133.641 184.484C140.071 177.589 150.873 177.212 157.768 183.642C164.663 190.071 165.04 200.873 158.61 207.768Z" fill="#97A1F9" fill-opacity="0.25"/>
<path d="M207.01 263.607C213.44 256.712 213.062 245.911 206.168 239.481L193.683 227.839L182.041 240.324C175.612 247.219 175.989 258.02 182.884 264.45C189.779 270.879 200.58 270.502 207.01 263.607Z" fill="#97A1F9" fill-opacity="0.25"/>
<path d="M93.6414 240.484C87.2118 247.379 87.589 258.181 94.4839 264.61L106.968 276.252L118.61 263.768C125.04 256.873 124.663 246.071 117.768 239.642C110.873 233.212 100.071 233.589 93.6414 240.484Z" fill="#97A1F9" fill-opacity="0.25"/>
</svg>
