<svg width="310" height="119" viewBox="0 0 310 119" fill="none" xmlns="http://www.w3.org/2000/svg">
<path d="M130.339 43.2044C130.339 51.6747 123.472 58.5412 115.002 58.5412H99.665V43.2044C99.665 34.7341 106.532 27.8676 115.002 27.8676C123.472 27.8676 130.339 34.7341 130.339 43.2044Z" fill="#93DCAF"/>
<path d="M130.339 73.878C130.339 65.4077 137.205 58.5411 145.676 58.5411H161.013V73.878C161.013 82.3483 154.146 89.2148 145.676 89.2148C137.205 89.2148 130.339 82.3483 130.339 73.878Z" fill="#93DCAF"/>
<path d="M99.665 73.878C99.665 82.3483 106.532 89.2148 115.002 89.2148H130.339V73.878C130.339 65.4077 123.472 58.5411 115.002 58.5411C106.532 58.5411 99.665 65.4077 99.665 73.878Z" fill="#93DCAF"/>
<path d="M161.013 43.2044C161.013 34.7341 154.146 27.8676 145.676 27.8676H130.339V43.2044C130.339 51.6747 137.205 58.5412 145.676 58.5412C154.146 58.5412 161.013 51.6747 161.013 43.2044Z" fill="#93DCAF"/>
<path d="M198.653 43.2044C198.653 51.6747 191.787 58.5412 183.316 58.5412H167.979V43.2044C167.979 34.7341 174.846 27.8676 183.316 27.8676C191.787 27.8676 198.653 34.7341 198.653 43.2044Z" fill="#8590F7"/>
<path d="M198.653 73.878C198.653 65.4077 205.52 58.5411 213.99 58.5411H229.327V73.878C229.327 82.3483 222.46 89.2148 213.99 89.2148C205.52 89.2148 198.653 82.3483 198.653 73.878Z" fill="#8590F7"/>
<path d="M167.979 73.878C167.979 82.3483 174.846 89.2148 183.316 89.2148H198.653V73.878C198.653 65.4077 191.787 58.5411 183.316 58.5411C174.846 58.5411 167.979 65.4077 167.979 73.878Z" fill="#8590F7"/>
<path d="M229.327 43.2044C229.327 34.7341 222.46 27.8676 213.99 27.8676H198.653V43.2044C198.653 51.6747 205.52 58.5412 213.99 58.5412C222.46 58.5412 229.327 51.6747 229.327 43.2044Z" fill="#8590F7"/>
<path d="M64.7841 30.3398C67.1871 27.6164 70.8075 26.2547 75.6455 26.2547C80.5155 26.2547 83.5913 26.6072 84.8729 27.312L86.1705 28.5135C86.1705 29.6669 85.5297 31.0126 84.2481 32.5505C82.9666 34.0564 82.2296 35.0656 82.0374 35.5783C81.3005 37.4366 80.932 40.0318 80.932 43.3639C80.932 46.696 80.9801 49.4995 81.0762 51.7743L81.5568 60.2808C81.717 64.0935 81.7971 68.3708 81.7971 73.1127C81.7971 77.8545 82.0054 80.8342 82.4219 82.0517C82.8704 83.2372 83.7195 84.3586 84.969 85.4159L87.7084 87.8188C87.7084 89.6451 85.786 90.5582 81.9413 90.5582C76.5907 90.5582 72.3614 90.2058 69.2536 89.5009C67.0429 88.9883 65.9375 87.979 65.9375 86.4732L66.2739 85.1275C67.4594 81.3789 68.0521 78.5754 68.0521 76.7171C68.0521 74.8268 67.8278 71.2864 67.3793 66.096C66.9628 60.9056 66.7545 56.2438 66.7545 52.1107C66.7545 47.9776 66.5943 45.911 66.2739 45.911C65.4409 45.911 63.0219 51.2616 59.017 61.9629C55.012 72.6641 52.2406 79.5206 50.7027 82.5323C48.4599 86.9538 46.2492 89.1645 44.0705 89.1645C41.9238 89.1645 40.1937 87.8349 38.8801 85.1756L37.7747 82.5323C37.4223 81.6352 36.365 78.9278 34.6028 74.4103L30.3255 63.5969C25.7759 52.1267 23.0044 46.3916 22.0112 46.3916C21.05 46.3916 20.5694 50.7971 20.5694 59.608C20.5694 63.8051 20.6495 67.3776 20.8097 70.3252L21.1942 75.3714C21.3224 77.0055 21.3864 78.6395 21.3864 80.2735L21.5787 82.5804L21.819 84.5027C21.9151 85.496 21.9631 86.8096 21.9631 88.4436L21.1461 89.4048C19.6723 90.4621 17.6538 90.9908 15.0907 90.9908C9.09925 90.9908 6.10354 90.2378 6.10354 88.732C6.10354 88.0912 6.7123 86.9217 7.9298 85.2236C9.17935 83.5255 10.0444 81.9235 10.525 80.4177C11.0056 78.8798 11.2459 75.5316 11.2459 70.3733L11.342 67.5378L11.5343 64.6542C11.9828 55.6831 12.2071 49.6917 12.2071 46.68C12.2071 43.6683 11.9988 41.2813 11.5823 39.5191C11.1978 37.7569 10.2847 35.7064 8.84293 33.3675C7.43319 30.9966 6.72832 29.2985 6.72832 28.2732L7.73756 27.1198C9.08323 26.1266 10.493 25.63 11.9668 25.63H14.562C17.7339 25.63 20.6816 26.2547 23.4049 27.5043C26.1283 28.7218 28.1949 30.3558 29.6046 32.4063L30.9503 34.6171C32.0396 36.5715 33.145 39.0225 34.2664 41.9702C35.3877 44.8858 37.0218 48.7626 39.1684 53.6005C41.3151 58.4065 43.1573 62.075 44.6952 64.6061L45.9448 66.1921C46.8419 66.1921 49.9177 60.5371 55.1722 49.2271C60.4587 37.9171 63.6627 31.6214 64.7841 30.3398Z" fill="#8590F7"/>
<path d="M288.054 60.7614V57.4933C288.054 54.0971 287.589 50.781 286.66 47.545C284.674 40.6565 280.973 36.0108 275.558 33.6078C273.091 32.5185 270.4 31.9738 267.485 31.9738L266.812 32.0219C263.159 32.0219 261.109 32.8389 260.66 34.4729C260.564 34.8253 260.516 39.6152 260.516 48.8427V67.2975L260.468 68.0184C260.468 68.4989 260.468 68.9795 260.468 69.4601L260.324 74.5064C260.324 74.987 260.324 75.4676 260.324 75.9482L260.276 78.1108V78.8798C260.276 81.5711 260.612 83.3493 261.285 84.2144C261.958 85.0794 263.672 85.512 266.427 85.512H269.311C272.002 85.512 274.565 84.8231 277 83.4454C279.467 82.0677 281.422 80.4177 282.864 78.4953C284.305 76.5409 285.523 73.9937 286.516 70.8539C287.541 67.6819 288.054 64.3178 288.054 60.7614ZM243.503 31.8777C241.677 30.9485 240.763 29.8432 240.763 28.5616C240.763 27.248 241.532 26.463 243.07 26.2067C247.396 25.4698 254.845 25.1013 265.418 25.1013H267.965C279.147 25.1013 287.942 28.0489 294.35 33.9442C300.758 39.8075 303.962 47.8815 303.962 58.1662C303.962 68.4509 300.758 76.7011 294.35 82.9168C287.942 89.1325 279.451 92.2403 268.878 92.2403H265.082L263.832 92.1922L261.237 92.1442C260.404 92.1121 259.587 92.0961 258.786 92.0961L248.02 91.7597C244.432 91.7597 242.301 91.5514 241.629 91.1349C240.988 90.7184 240.667 89.9014 240.667 88.6839C240.667 87.979 241.596 87.0178 243.455 85.8003C245.313 84.5508 246.483 83.077 246.963 81.3789C247.444 79.6808 247.684 74.0418 247.684 64.462L247.588 58.3104L247.732 51.0534L247.78 49.8519C247.812 49.0189 247.828 48.2019 247.828 47.4009L247.924 43.7964C247.924 39.439 247.588 36.4593 246.915 34.8574C246.467 33.8001 245.329 32.8068 243.503 31.8777Z" fill="#93DCAF"/>
</svg>
