<svg width="300" height="251" viewBox="0 0 300 251" fill="none" xmlns="http://www.w3.org/2000/svg">
<path d="M216.83 143.599C211.156 151.128 200.453 152.632 192.924 146.959L179.291 136.686L189.564 123.053C195.238 115.523 205.941 114.019 213.47 119.693C221 125.367 222.504 136.07 216.83 143.599Z" fill="#93DCAF" fill-opacity="0.25"/>
<path d="M257.648 206.393C263.322 198.863 274.025 197.359 281.554 203.033L295.187 213.306L284.914 226.939C279.24 234.468 268.537 235.972 261.008 230.299C253.479 224.625 251.975 213.922 257.648 206.393Z" fill="#93DCAF" fill-opacity="0.25"/>
<path d="M210.061 171.977C204.388 179.506 205.892 190.209 213.421 195.883L227.054 206.156L237.327 192.523C243.001 184.994 241.497 174.291 233.967 168.617C226.438 162.944 215.735 164.448 210.061 171.977Z" fill="#93DCAF" fill-opacity="0.25"/>
<path d="M281.951 153.565C283.96 144.354 278.121 135.259 268.91 133.25L252.231 129.613L248.594 146.291C246.586 155.502 252.424 164.598 261.636 166.606C270.847 168.615 279.942 162.776 281.951 153.565Z" fill="#93DCAF" fill-opacity="0.25"/>
<path d="M244.334 38.0395C238.66 45.5687 227.957 47.0729 220.428 41.3992L206.795 31.1261L217.068 17.4932C222.742 9.96399 233.445 8.45977 240.974 14.1335C248.503 19.8071 250.008 30.5102 244.334 38.0395Z" fill="#93DCAF" fill-opacity="0.25"/>
<path d="M233.861 72.0366C239.535 64.5073 250.238 63.0031 257.767 68.6768L271.4 78.9499L261.127 92.5828C255.453 100.112 244.75 101.616 237.221 95.9426C229.692 90.2689 228.187 79.5658 233.861 72.0366Z" fill="#93DCAF" fill-opacity="0.25"/>
<path d="M173.148 49.2581C167.474 56.7874 168.978 67.4904 176.508 73.1641L190.14 83.4372L200.414 69.8044C206.087 62.2751 204.583 51.572 197.054 45.8984C189.525 40.2247 178.821 41.7289 173.148 49.2581Z" fill="#93DCAF" fill-opacity="0.25"/>
<path d="M300.907 63.3985C306.58 55.8692 305.076 45.1662 297.547 39.4925L283.914 29.2194L273.641 42.8522C267.967 50.3815 269.471 61.0846 277.001 66.7582C284.53 72.4319 295.233 70.9277 300.907 63.3985Z" fill="#93DCAF" fill-opacity="0.25"/>
<path d="M102.597 4.97208C96.9235 12.5013 86.2204 14.0055 78.6911 8.33185L65.0583 -1.94127L75.3314 -15.5741C81.0051 -23.1034 91.7081 -24.6076 99.2374 -18.9339C106.767 -13.2602 108.271 -2.55716 102.597 4.97208Z" fill="#93DCAF" fill-opacity="0.25"/>
<path d="M108.757 62.1657C114.43 54.6365 125.133 53.1323 132.663 58.806L146.296 69.0791L136.022 82.7119C130.349 90.2412 119.646 91.7454 112.116 86.0717C104.587 80.398 103.083 69.6949 108.757 62.1657Z" fill="#93DCAF" fill-opacity="0.25"/>
<path d="M54.785 11.6915C49.1113 19.2207 50.6155 29.9238 58.1448 35.5975L71.7776 45.8706L82.0508 32.2377C87.7244 24.7085 86.2202 14.0054 78.691 8.33171C71.1617 2.65802 60.4587 4.16225 54.785 11.6915Z" fill="#93DCAF" fill-opacity="0.25"/>
<path d="M169.95 22.8376C175.623 15.3083 174.119 4.60524 166.59 -1.06844L152.957 -11.3416L142.684 2.29133C137.01 9.82056 138.514 20.5236 146.044 26.1973C153.573 31.871 164.276 30.3668 169.95 22.8376Z" fill="#93DCAF" fill-opacity="0.25"/>
</svg>
