<svg width="75" height="63" viewBox="0 0 75 63" fill="none" xmlns="http://www.w3.org/2000/svg">
<path d="M44.2635 14.4886C44.9009 15.8556 44.9671 17.2328 44.462 18.6205C43.957 20.0081 43.1051 20.9814 41.9064 21.5404L41.2439 21.8493C41.014 21.9053 40.8465 21.9578 40.7413 22.0069C39.774 22.458 38.5979 22.3791 37.2131 21.7703C35.8282 21.1615 34.8367 20.2157 34.2385 18.9329L33.9885 18.3966C33.3609 17.0507 33.2947 15.6734 33.7899 14.2647C34.316 12.8673 35.21 11.8744 36.4718 11.286L36.8188 11.1242C37.9123 10.6142 39.1852 10.5712 40.6373 10.9949C42.0895 11.4187 43.0852 12.2089 43.6246 13.3656L44.1164 14.1732L44.2635 14.4886ZM22.7983 23.8835L23.0337 24.3882C23.6613 25.7341 23.7121 27.1058 23.186 28.5033C22.6907 29.9119 21.9173 30.8614 20.8658 31.3518L20.0141 31.7489C18.8995 32.2687 17.633 32.2704 16.2145 31.7541C14.796 31.2378 13.8269 30.4224 13.3072 29.3078L13.0823 28.9902L12.7587 28.2962C12.1213 26.9293 12.0551 25.552 12.5601 24.1643C13.0652 22.7767 13.9066 21.8083 15.0842 21.2591L15.7467 20.9502C16.8823 20.4207 18.1748 20.4197 19.6241 20.9472C21.0734 21.4747 22.1315 22.4535 22.7983 23.8835ZM73.8535 33.7182C74.4909 35.0852 74.1367 36.0825 72.7908 36.7101C72.5174 36.8376 71.4758 36.7728 69.6662 36.5157C64.5568 35.8259 59.8586 35.8533 55.5717 36.5978C51.2945 37.3633 46.5903 38.9424 41.459 41.3352C33.4465 45.0715 27.3437 49.9655 23.1505 56.0173C20.4383 59.9191 18.998 61.9092 18.8298 61.9877C17.61 62.5565 16.7011 62.1994 16.1029 60.9166C15.5047 59.6338 15.8292 57.4471 17.0763 54.3564C19.5832 48.0925 23.8259 42.6961 29.8046 38.1672C32.4546 36.1634 35.2412 34.4799 38.1643 33.1168L38.8268 32.8079C41.6658 31.4841 44.8924 30.4147 48.5065 29.5999C55.4838 28.0362 62.1297 28.3423 68.4442 30.5184C71.5601 31.6001 73.3632 32.6667 73.8535 33.7182Z" fill="#F4EAE4"/>
</svg>
